<?xml version="1.0" encoding="UTF-8"?>
<svg version="1.1" xmlns="http://www.w3.org/2000/svg" width="128" height="128">
<path d="M0 0 C1.36889374 -0.0129007 1.36889374 -0.0129007 2.76544189 -0.02606201 C4.2639695 -0.03245193 4.2639695 -0.03245193 5.79277039 -0.03897095 C6.8467099 -0.04714844 7.90064941 -0.05532593 8.98652649 -0.06375122 C12.48012217 -0.08859815 15.97367728 -0.10511836 19.46733093 -0.11953735 C20.6596401 -0.12486103 21.85194927 -0.13018471 23.08038902 -0.13566971 C29.38962028 -0.16239654 35.69883177 -0.18177413 42.00810242 -0.19619751 C48.52853076 -0.21285613 55.04845474 -0.25764617 61.56869221 -0.30856895 C66.57955516 -0.34219983 71.59029769 -0.35377035 76.60126305 -0.35942459 C79.00505115 -0.36614707 81.40883106 -0.38139477 83.81250954 -0.4053154 C87.17614194 -0.43688283 90.53840414 -0.43701585 93.90214539 -0.42959595 C94.89509109 -0.44600128 95.8880368 -0.46240662 96.91107178 -0.47930908 C101.37590542 -0.43898508 104.55851218 -0.32917168 108.14401245 2.50286865 C111.21283268 5.89615863 111.66447549 8.20299605 111.69544983 12.61235046 C111.70405029 13.52494629 111.71265076 14.43754211 111.72151184 15.37779236 C111.72577179 16.37681076 111.73003174 17.37582916 111.73442078 18.40512085 C111.74668701 19.98603012 111.74668701 19.98603012 111.75920105 21.59887695 C111.78404798 25.09247264 111.80056818 28.58602775 111.81498718 32.0796814 C111.82031086 33.27199057 111.82563454 34.46429974 111.83111954 35.69273949 C111.85784637 42.00197075 111.87722396 48.31118224 111.89164734 54.62045288 C111.90830596 61.14088122 111.953096 67.6608052 112.00401878 74.18104267 C112.03764966 79.19190563 112.04922018 84.20264815 112.05487442 89.21361351 C112.0615969 91.61740161 112.0768446 94.02118152 112.10076523 96.42486 C112.13233266 99.78849241 112.13246568 103.15075461 112.12504578 106.51449585 C112.14145111 107.50744156 112.15785645 108.50038727 112.17475891 109.52342224 C112.13407129 114.02851705 112.02487998 117.16678333 109.13008118 120.75636292 C105.85884509 123.78623152 104.47990663 124.27780586 100.16539001 124.30780029 C99.2457547 124.31640076 98.32611938 124.32500122 97.37861633 124.3338623 C95.86066971 124.34025223 95.86066971 124.34025223 94.3120575 124.34677124 C93.24851044 124.35494873 92.18496338 124.36312622 91.08918762 124.37155151 C87.55768909 124.39643263 84.02623084 124.41292857 80.49467468 124.42733765 C79.29041588 124.43266132 78.08615707 124.437985 76.84540558 124.44347 C70.47134029 124.47021344 64.09729467 124.48958452 57.72319031 124.5039978 C51.13435411 124.52064807 44.54601786 124.56542641 37.95737076 124.61636925 C32.89589351 124.65000169 27.83453549 124.66157093 22.77295685 124.66722488 C20.34404937 124.67394842 17.91515004 124.68919884 15.48635101 124.71311569 C12.0866913 124.74468243 8.68838738 124.74481603 5.28862 124.73739624 C4.2847525 124.75380157 3.28088501 124.77020691 2.24659729 124.78710938 C-2.28111938 124.74665053 -5.45843157 124.65279581 -9.06764221 121.74243164 C-12.08985262 118.47027994 -12.58238126 117.0886271 -12.61235046 112.77774048 C-12.62095093 111.85810516 -12.62955139 110.93846985 -12.63841248 109.9909668 C-12.64267242 108.97900238 -12.64693237 107.96703796 -12.65132141 106.92440796 C-12.6594989 105.8608609 -12.66767639 104.79731384 -12.67610168 103.70153809 C-12.70098281 100.17003956 -12.71747875 96.6385813 -12.73188782 93.10702515 C-12.73721149 91.90276634 -12.74253517 90.69850754 -12.74802017 89.45775604 C-12.77476361 83.08369075 -12.79413469 76.70964513 -12.80854797 70.33554077 C-12.82519824 63.74670458 -12.86997658 57.15836833 -12.92091942 50.56972122 C-12.95455186 45.50824397 -12.9661211 40.44688595 -12.97177505 35.38530731 C-12.97849859 32.95639984 -12.99374901 30.5275005 -13.01766586 28.09870148 C-13.0492326 24.69904177 -13.0493662 21.30073784 -13.04194641 17.90097046 C-13.05835175 16.89710297 -13.07475708 15.89323547 -13.09165955 14.85894775 C-13.05156058 10.37150414 -12.95685777 7.14995365 -10.10948181 3.54470825 C-6.71522239 0.48362695 -4.40566823 0.03094844 0 0 Z " fill="#010101" transform="translate(14.458450317382813,1.846099853515625)"/>
<path d="M0 0 C3.79311037 1.26437012 5.23580556 3.10567943 8 6 C9.08747749 7.10389857 10.17745769 8.20533556 11.26953125 9.3046875 C11.84429199 9.88460449 12.41905273 10.46452148 13.01123047 11.06201172 C17.93293836 16.01573939 22.84576903 20.88814002 28.1796875 25.40234375 C31.62285026 28.42434712 34.80053954 31.72395671 38 35 C37.69320312 35.60328125 37.38640625 36.2065625 37.0703125 36.828125 C35.91387937 39.17475573 34.947866 41.5626303 34 44 C35.32 45.65 36.64 47.3 38 49 C31.68946774 56.60500042 24.83944384 63.48652661 17.3203125 69.89453125 C13.51840822 73.34440736 9.95624871 77.04022316 6.39160156 80.73339844 C4.96386032 82.19186215 3.48567873 83.60060006 2 85 C1.34 85 0.68 85 0 85 C3.86029276 74.41714862 11.6866432 66.68158064 20.0625 59.5 C23.79822618 56.28858627 26.88672148 52.81376619 30 49 C25.90874045 51.21886329 22.92842268 53.86015272 19.6875 57.1875 C18.80449219 58.08855469 17.92148437 58.98960938 17.01171875 59.91796875 C16.34785156 60.60503906 15.68398438 61.29210937 15 62 C15 57.19224215 18.29123468 53.54219541 20.88867188 49.625 C23.32622649 45.82859685 23.32622649 45.82859685 24.06640625 41.47265625 C22.55669762 37.97212306 20.5346053 34.94392769 18.375 31.8125 C16.82986379 29.57067291 15.39597631 27.34345811 14 25 C14.33 24.34 14.66 23.68 15 23 C15.83144531 23.85464844 16.66289063 24.70929687 17.51953125 25.58984375 C18.61692048 26.70599177 19.71459145 27.82186282 20.8125 28.9375 C21.35970703 29.50146484 21.90691406 30.06542969 22.47070312 30.64648438 C25.77960394 34.01029562 25.77960394 34.01029562 30 36 C27.32050502 32.56689706 24.62633337 29.57986582 21.3125 26.75 C12.81878333 19.44219849 5.25705882 12.02670821 0 2 C0 1.34 0 0.68 0 0 Z " fill="#E8E8E8" transform="translate(23,21)"/>
<path d="M0 0 C0.66 0 1.32 0 2 0 C-1.84700137 10.43938902 -9.60138686 18.00890732 -17.4375 25.625 C-18.35982422 26.53378906 -19.28214844 27.44257812 -20.23242188 28.37890625 C-22.48150746 30.59303195 -24.73732578 32.79977751 -27 35 C-23.53833655 34.25090407 -22.00847408 33.3484944 -19.5625 30.75 C-18.964375 30.12480469 -18.36625 29.49960937 -17.75 28.85546875 C-16.88375 27.93701172 -16.88375 27.93701172 -16 27 C-15.0244983 26.01718204 -14.0458481 25.0374673 -13.0625 24.0625 C-12.381875 23.381875 -11.70125 22.70125 -11 22 C-12.92841762 27.47915482 -16.18984347 31.95761369 -19.41796875 36.74609375 C-21.30211908 40.62139555 -21.31933355 41.94330906 -20 46 C-18.78721328 48.55031122 -17.39751228 50.95929747 -15.9375 53.375 C-15.56044922 54.01566406 -15.18339844 54.65632813 -14.79492188 55.31640625 C-13.87160383 56.88254066 -12.93694607 58.44198034 -12 60 C-12.99 60 -13.98 60 -15 60 C-17.44578365 57.51877021 -19.61389478 54.86332626 -21.84375 52.1875 C-22.5553125 51.465625 -23.266875 50.74375 -24 50 C-24.99 50 -25.98 50 -27 50 C-26.33468262 50.64437012 -25.66936523 51.28874023 -24.98388672 51.95263672 C-22.48182095 54.38586627 -19.98953118 56.82834966 -17.50292969 59.27734375 C-16.43205881 60.32830041 -15.35760103 61.37561676 -14.27929688 62.41894531 C-7.86332532 68.63218171 -1.77440417 74.74902481 2 83 C2 83.66 2 84.32 2 85 C-1.04581486 83.63886987 -3.13839026 82.10669904 -5.48339844 79.74365234 C-6.47397247 78.75285172 -6.47397247 78.75285172 -7.48455811 77.74203491 C-8.18574768 77.03052277 -8.88693726 76.31901062 -9.609375 75.5859375 C-10.69958954 74.49147812 -10.69958954 74.49147812 -11.81182861 73.37490845 C-14.12929198 71.0462612 -16.4396995 68.71075174 -18.75 66.375 C-20.32115444 64.79381347 -21.89276371 63.21307875 -23.46484375 61.6328125 C-27.31518653 57.7604331 -31.15976117 53.88239829 -35 50 C-34.52433594 49.21753906 -34.04867187 48.43507812 -33.55859375 47.62890625 C-31.61835835 44.5018679 -31.61835835 44.5018679 -31 41 C-32.29103643 39.6256709 -33.6256709 38.29103643 -35 37 C-35 34 -35 34 -33.62573242 32.55151367 C-32.97967041 32.03306885 -32.3336084 31.51462402 -31.66796875 30.98046875 C-26.21868628 26.41439965 -21.30082812 21.37133453 -16.3125 16.3125 C-14.47766292 14.45205459 -12.64050281 12.59389673 -10.80078125 10.73828125 C-9.99809814 9.92399658 -9.19541504 9.10971191 -8.3684082 8.27075195 C-6 6 -6 6 -3.26245117 3.82885742 C-0.92701041 2.19939376 -0.92701041 2.19939376 0 0 Z " fill="#E7E8E8" transform="translate(103,21)"/>
<path d="M0 0 C1.93271748 1.83608161 3.37051934 3.87262247 5 6 C4.12432227 7.03817463 3.22347209 8.05515303 2.3125 9.0625 C1.81363281 9.63097656 1.31476562 10.19945313 0.80078125 10.78515625 C-1 12 -1 12 -3.40625 11.84375 C-6.10746499 10.96504151 -8.35959482 9.86531048 -10.8125 8.4375 C-11.60269531 7.98246094 -12.39289062 7.52742188 -13.20703125 7.05859375 C-13.79871094 6.70925781 -14.39039062 6.35992187 -15 6 C-12.87748883 3.69895986 -10.84451444 2.18105541 -8.0625 0.75 C-7.39347656 0.39421875 -6.72445313 0.0384375 -6.03515625 -0.328125 C-3.53456711 -1.15365539 -2.41801969 -1.00956016 0 0 Z " fill="#E7E7E7" transform="translate(38,58)"/>
<path d="M0 0 C3.39464321 0.43991057 6.23160661 2.0135876 9.25 3.5625 C10.14203125 4.01753906 11.0340625 4.47257812 11.953125 4.94140625 C12.96632813 5.46541016 12.96632813 5.46541016 14 6 C4.82758621 13 4.82758621 13 0.8125 13 C-1.66744918 11.63175218 -3.26695541 10.24653928 -5 8 C-5 5.09348396 -3.98190854 3.9769178 -2.1875 1.6875 C-1.465625 1.130625 -0.74375 0.57375 0 0 Z " fill="#EBEBEB" transform="translate(91,57)"/>
<path d="M0 0 C4.875 3.625 4.875 3.625 6 7 C4.0625 9.6875 4.0625 9.6875 2 12 C-0.46800047 10.84826645 -2.04783565 9.95216435 -4 8 C-3.66306057 4.63060567 -2.11180592 2.57089417 0 0 Z " fill="#EBEBEB" transform="translate(64,57)"/>
<path d="M0 0 C4.96547903 0.15046906 7.20583628 2.83091586 10.44921875 6.2109375 C12 8 12 8 14 11 C16.05003955 12.19232613 16.05003955 12.19232613 18 13 C18 13.66 18 14.32 18 15 C17.01 15.33 16.02 15.66 15 16 C12.49599357 13.5248518 9.99748094 11.04423106 7.5 8.5625 C6.78457031 7.85544922 6.06914063 7.14839844 5.33203125 6.41992188 C4.65527344 5.74638672 3.97851562 5.07285156 3.28125 4.37890625 C2.65283203 3.7557251 2.02441406 3.13254395 1.37695312 2.49047852 C0 1 0 1 0 0 Z " fill="#2E2E2E" transform="translate(75,70)"/>
<path d="M0 0 C-1.58323721 3.78561747 -3.96379742 6.3286918 -6.8125 9.25 C-7.66457031 10.14203125 -8.51664063 11.0340625 -9.39453125 11.953125 C-12 14 -12 14 -14.82421875 14.296875 C-15.90123047 14.14992188 -15.90123047 14.14992188 -17 14 C-15.87060876 11.74121751 -14.75405467 10.84438927 -12.8125 9.25 C-10.3015101 7.15664907 -7.99549524 4.99993481 -5.75 2.625 C-3 0 -3 0 0 0 Z " fill="#2B2B2B" transform="translate(53,70)"/>
<path d="M0 0 C2.66666667 1.33333333 5.33333333 2.66666667 8 4 C8 4.66 8 5.32 8 6 C7.01 6.33 6.02 6.66 5 7 C3.29115995 5.37660195 1.62553283 3.70680947 0 2 C0 1.34 0 0.68 0 0 Z " fill="#1D1D1D" transform="translate(85,79)"/>
<path d="M0 0 C0.66 0 1.32 0 2 0 C2 0.66 2 1.32 2 2 C2.66 2.33 3.32 2.66 4 3 C2.68 5.31 1.36 7.62 0 10 C-0.33 9.01 -0.66 8.02 -1 7 C-1.66 6.67 -2.32 6.34 -3 6 C-2.505 5.566875 -2.01 5.13375 -1.5 4.6875 C0.33218192 3.00259517 0.33218192 3.00259517 0 0 Z " fill="#262626" transform="translate(60,55)"/>
<path d="M0 0 C0.99 0.66 1.98 1.32 3 2 C2.67 3.32 2.34 4.64 2 6 C0.35 6.33 -1.3 6.66 -3 7 C-2.690625 6.401875 -2.38125 5.80375 -2.0625 5.1875 C-0.89790296 2.91043228 -0.89790296 2.91043228 0 0 Z " fill="#252525" transform="translate(70,60)"/>
<path d="M0 0 C2.04119788 1.61594832 4.04072937 3.2856382 6 5 C6 5.66 6 6.32 6 7 C4.125 6.75 4.125 6.75 2 6 C0.61504198 3.85331506 0 2.56128588 0 0 Z " fill="#2F2F2F" transform="translate(47,50)"/>
<path d="M0 0 C3.73639216 1.24546405 4.18756513 2.63404953 6 6 C5.34 6.66 4.68 7.32 4 8 C0 2.25 0 2.25 0 0 Z " fill="#C2C2C2" transform="translate(23,21)"/>
</svg>
