<?xml version="1.0" encoding="UTF-8"?>
<svg version="1.1" xmlns="http://www.w3.org/2000/svg" width="96" height="96">
<path d="M0 0 C0.79205338 -0.0065712 1.58410675 -0.0131424 2.40016174 -0.01991272 C5.02743622 -0.03966093 7.65465349 -0.05131164 10.28198242 -0.0612793 C11.17857763 -0.06535482 12.07517284 -0.06943035 12.99893761 -0.07362938 C17.74440659 -0.09449657 22.4898466 -0.1087955 27.23535156 -0.11816406 C32.13827288 -0.12923023 37.04074056 -0.16363054 41.94350147 -0.20333576 C45.71218208 -0.2294746 49.48075416 -0.23785346 53.24951744 -0.24144554 C55.05683137 -0.24631854 56.86414024 -0.25795283 58.67136574 -0.27648354 C61.20184954 -0.30081745 63.7311539 -0.29992081 66.26171875 -0.29296875 C67.00736084 -0.30577881 67.75300293 -0.31858887 68.52124023 -0.33178711 C73.40456202 -0.28292306 75.90287536 0.69328723 79.32495117 4.17700195 C80.8795215 7.28614261 80.46336518 10.57933313 80.4543457 13.99145508 C80.45697418 15.20139381 80.45697418 15.20139381 80.45965576 16.43577576 C80.46406763 19.10995618 80.46113861 21.78407082 80.45776367 24.45825195 C80.4584369 26.31148288 80.45940709 28.16471372 80.46066284 30.01794434 C80.46213891 33.90511922 80.45998816 37.79227114 80.45532227 41.67944336 C80.44962503 46.66991248 80.45290452 51.66032783 80.45889473 56.65079498 C80.46250278 60.47854012 80.46136063 64.30627243 80.45876694 68.13401794 C80.45809834 69.97448228 80.45892374 71.81494777 80.46124649 73.65541077 C80.46377699 76.22448829 80.45992677 78.79347788 80.4543457 81.36254883 C80.45636993 82.12832748 80.45839417 82.89410614 80.46047974 83.68309021 C80.43921543 88.94847343 80.43921543 88.94847343 79.32495117 91.17700195 C78.66495117 91.17700195 78.00495117 91.17700195 77.32495117 91.17700195 C77.32495117 91.83700195 77.32495117 92.49700195 77.32495117 93.17700195 C74.20308898 94.73793305 70.8784671 94.34206377 67.45043945 94.35400391 C66.63727264 94.3605751 65.82410583 94.3671463 64.98629761 94.37391663 C62.28928542 94.39366403 59.5923289 94.40531449 56.89526367 94.4152832 C55.97535519 94.41935873 55.0554467 94.42343426 54.1076622 94.42763329 C49.24015272 94.44849871 44.37267149 94.46279921 39.50512695 94.47216797 C34.47207642 94.48324235 29.43946681 94.51765265 24.40657234 94.55733967 C20.54099695 94.58345394 16.67552752 94.5918551 12.80987167 94.59544945 C10.95428357 94.60032771 9.09870058 94.61197679 7.24319839 94.63048744 C4.64785804 94.65477231 2.05367056 94.65393384 -0.54174805 94.64697266 C-1.30968689 94.65978271 -2.07762573 94.67259277 -2.86883545 94.68579102 C-6.39452152 94.65128042 -8.29843117 94.470244 -11.12088013 92.27262878 C-14.00152355 88.38839559 -13.83529613 85.18591335 -13.85205078 80.50195312 C-13.85862198 79.70989975 -13.86519318 78.91784637 -13.8719635 78.10179138 C-13.89171172 75.47451691 -13.90336242 72.84729963 -13.91333008 70.2199707 C-13.91740561 69.32337549 -13.92148113 68.42678028 -13.92568016 67.50301552 C-13.94654735 62.75754653 -13.96084628 58.01210652 -13.97021484 53.26660156 C-13.98128101 48.36368024 -14.01568133 43.46121256 -14.05538654 38.55845165 C-14.08152538 34.78977105 -14.08990424 31.02119897 -14.09349632 27.25243568 C-14.09836933 25.44512175 -14.11000361 23.63781289 -14.12853432 21.83058739 C-14.15286823 19.30010359 -14.15197159 16.77079922 -14.14501953 14.24023438 C-14.15782959 13.49459229 -14.17063965 12.7489502 -14.18383789 11.98071289 C-14.13497384 7.09739111 -13.15876355 4.59907776 -9.67504883 1.17700195 C-6.60232063 -0.35936215 -3.37286802 0.01206484 0 0 Z " fill="#020202" transform="translate(14.675048828125,0.822998046875)"/>
<path d="M0 0 C4.34919918 1.65734046 7.09140799 4.91148139 10.25 8.1875 C14.49737552 12.52070517 18.77003961 16.71885434 23.4140625 20.6328125 C25.03594617 22.03098808 26.5811383 23.39398783 28 25 C27.75 26.9375 27.75 26.9375 27 29 C26.27617533 31.05925139 26.27617533 31.05925139 26 33 C26.66 33.66 27.32 34.32 28 35 C27.66729634 38.2824818 26.43024329 39.93857157 24.12109375 42.20703125 C23.53312012 42.79057373 22.94514648 43.37411621 22.33935547 43.9753418 C21.71174316 44.581604 21.08413086 45.18786621 20.4375 45.8125 C19.80215332 46.43616455 19.16680664 47.0598291 18.51220703 47.70239258 C12.93374865 53.14498185 7.26893552 58.35989271 1 63 C3.79568155 55.07890227 8.56879215 50.24577565 14.6875 44.75 C16.04787093 43.51815804 17.40605804 42.28389874 18.76171875 41.046875 C19.35944092 40.50901367 19.95716309 39.97115234 20.57299805 39.41699219 C22.11455642 38.03719115 22.11455642 38.03719115 23 36 C22.45730469 36.48210938 21.91460937 36.96421875 21.35546875 37.4609375 C20.64003906 38.09257813 19.92460938 38.72421875 19.1875 39.375 C18.47980469 40.00148437 17.77210937 40.62796875 17.04296875 41.2734375 C15 43 15 43 12 45 C13.00913065 41.46804274 14.03565507 38.9500829 16.1875 35.9375 C18.25623451 33.23424635 18.25623451 33.23424635 17.8046875 30.6171875 C16.91084836 27.71004077 15.6807842 25.67260727 13.9375 23.1875 C13.38964844 22.39730469 12.84179688 21.60710938 12.27734375 20.79296875 C11.85582031 20.20128906 11.43429688 19.60960938 11 19 C11.33 18.34 11.66 17.68 12 17 C12.62648438 17.63808594 13.25296875 18.27617188 13.8984375 18.93359375 C14.71570312 19.75988281 15.53296875 20.58617188 16.375 21.4375 C17.18710937 22.26121094 17.99921875 23.08492187 18.8359375 23.93359375 C20.82348515 26.03434672 20.82348515 26.03434672 23 27 C23 26.34 23 25.68 23 25 C22.47148438 24.79503906 21.94296875 24.59007813 21.3984375 24.37890625 C17.96140545 22.40289271 15.40358253 19.74196129 12.625 16.9375 C12.04790283 16.35838867 11.47080566 15.77927734 10.8762207 15.18261719 C0 4.04916254 0 4.04916254 0 0 Z " fill="#DEDEDE" transform="translate(17,16)"/>
<path d="M0 0 C0.66 0.33 1.32 0.66 2 1 C-3.86481024 10.69861616 -11.88894763 18.19399203 -20 26 C-17.28028361 24.67941569 -15.04159562 23.35410531 -12.75 21.375 C-11.8425 20.59125 -10.935 19.8075 -10 19 C-11.00967858 21.71836541 -12.03953539 24.06082368 -13.625 26.5 C-15.22822453 29.41495369 -15.34133882 30.71641675 -15 34 C-13.68548379 36.65706508 -13.68548379 36.65706508 -11.9375 39.1875 C-10.21484375 41.79296875 -10.21484375 41.79296875 -9 44 C-9.33 44.66 -9.66 45.32 -10 46 C-10.54269531 45.36191406 -11.08539063 44.72382812 -11.64453125 44.06640625 C-12.35996094 43.24011719 -13.07539062 42.41382813 -13.8125 41.5625 C-14.52019531 40.73878906 -15.22789063 39.91507813 -15.95703125 39.06640625 C-17.91109686 36.77835241 -17.91109686 36.77835241 -21 36 C-21 36.66 -21 37.32 -21 38 C-20.11248047 38.40182495 -20.11248047 38.40182495 -19.20703125 38.81176758 C-15.54918151 40.78109885 -12.91031583 43.76196285 -10 46.6875 C-9.38382813 47.28755859 -8.76765625 47.88761719 -8.1328125 48.50585938 C-4.2621703 52.37234852 -1.34952002 56.03786267 1 61 C0.67 61.66 0.34 62.32 0 63 C-0.44279297 62.55197021 -0.88558594 62.10394043 -1.34179688 61.64233398 C-3.39176683 59.57129904 -5.44585433 57.50439303 -7.5 55.4375 C-8.19609375 54.73302734 -8.8921875 54.02855469 -9.609375 53.30273438 C-13.70056046 49.19260825 -17.86846545 45.3044923 -22.35351562 41.62524414 C-24.12247363 39.87910632 -25.02148275 38.26975333 -26 36 C-25.01 35.01 -24.02 34.02 -23 33 C-23.309375 32.4225 -23.61875 31.845 -23.9375 31.25 C-24.92871384 29.15095893 -25.47548801 27.24925862 -26 25 C-25.46375 24.5359375 -24.9275 24.071875 -24.375 23.59375 C-15.87885384 16.10372641 -7.95731556 8.05370496 0 0 Z " fill="#E3E3E3" transform="translate(77,16)"/>
<path d="M0 0 C2.63840764 1.03937271 3.54887645 2.4663835 5.0625 4.8125 C3.4375 6.875 3.4375 6.875 1.0625 8.8125 C-2.76620078 8.8125 -4.41255493 8.26837335 -7.3125 5.75 C-8.116875 4.7909375 -8.116875 4.7909375 -8.9375 3.8125 C-2.27486397 -0.22014813 -2.27486397 -0.22014813 0 0 Z " fill="#E5E5E5" transform="translate(26.9375,43.1875)"/>
<path d="M0 0 C3.17280351 0.43762807 6.05667611 1.77361505 9 3 C9 3.99 9 4.98 9 6 C3.62790698 9.05232558 3.62790698 9.05232558 0.75 8.8125 C-1 8 -1 8 -3 6 C-2.63318342 3.06546739 -2.13562754 2.13562754 0 0 Z " fill="#E9E9E9" transform="translate(68,43)"/>
<path d="M0 0 C0.66 0.33 1.32 0.66 2 1 C-0.40047974 4.94364529 -1.93303282 6.99190557 -6 9 C-7.39092906 10.22053083 -8.73451174 11.4961432 -10.0390625 12.80859375 C-10.78414062 13.55560547 -11.52921875 14.30261719 -12.296875 15.07226562 C-13.06515625 15.85279297 -13.8334375 16.63332031 -14.625 17.4375 C-15.78902344 18.60249023 -15.78902344 18.60249023 -16.9765625 19.79101562 C-21.29951443 24.1346414 -21.29951443 24.1346414 -25 29 C-25.33 27.68 -25.66 26.36 -26 25 C-25.46375 24.5359375 -24.9275 24.071875 -24.375 23.59375 C-15.87885384 16.10372641 -7.95731556 8.05370496 0 0 Z " fill="#D9D9D9" transform="translate(77,16)"/>
<path d="M0 0 C1.32 0.99 2.64 1.98 4 3 C3.6875 4.875 3.6875 4.875 3 7 C2.01 7.66 1.02 8.32 0 9 C-1.5625 7.75 -1.5625 7.75 -3 6 C-2.72963853 3.02602384 -2.14553974 2.14553974 0 0 Z " fill="#E2E2E2" transform="translate(48,43)"/>
<path d="M0 0 C1.32 0.33 2.64 0.66 4 1 C3.484375 1.391875 2.96875 1.78375 2.4375 2.1875 C1.963125 2.785625 1.48875 3.38375 1 4 C1.30791692 5.671549 1.64386903 7.33805547 2 9 C1.18424894 12.18884507 0.70320184 13.56566945 -2.125 15.3125 C-3.053125 15.6528125 -3.053125 15.6528125 -4 16 C-3.484375 15.4225 -2.96875 14.845 -2.4375 14.25 C-0.76002659 12.14996963 -0.76002659 12.14996963 -1.25 9.9375 C-1.4975 9.298125 -1.745 8.65875 -2 8 C-2.33 7.01 -2.66 6.02 -3 5 C-1.5625 2.3125 -1.5625 2.3125 0 0 Z " fill="#333333" transform="translate(45,42)"/>
<path d="M0 0 C0.66 0.33 1.32 0.66 2 1 C1.75 2.875 1.75 2.875 1 5 C-0.31403276 5.70394612 -1.6520257 6.36345658 -3 7 C-4.70496537 8.62746694 -6.37897032 10.28891311 -8 12 C-8.99 11.67 -9.98 11.34 -11 11 C-7.37 7.37 -3.74 3.74 0 0 Z " fill="#3F3F3F" transform="translate(67,31)"/>
<path d="M0 0 C0.66 0 1.32 0 2 0 C0.59155282 3.21524305 -1.10344786 5.32183868 -3.625 7.75 C-4.57246094 8.67039062 -4.57246094 8.67039062 -5.5390625 9.609375 C-6.02117188 10.06828125 -6.50328125 10.5271875 -7 11 C-7.99 10.67 -8.98 10.34 -10 10 C-8.83608372 7.67216743 -7.55663134 6.65832128 -5.5625 5 C-3.62370062 3.38096085 -1.78795167 1.78795167 0 0 Z " fill="#434343" transform="translate(38,52)"/>
<path d="M0 0 C1.65 1.65 3.3 3.3 5 5 C3.70700306 7.88437779 2.34058637 9.87219421 0 12 C-0.99 11.67 -1.98 11.34 -3 11 C-2 9 -2 9 1 7 C0.835 6.401875 0.67 5.80375 0.5 5.1875 C0 3 0 3 0 0 Z " fill="#2A2A2A" transform="translate(50,42)"/>
<path d="M0 0 C3.25543229 0.34879632 4.01873107 1.02133261 6.25 3.5625 C6.8275 4.366875 7.405 5.17125 8 6 C4.06830895 6 2.83572772 4.60580385 0 2 C0 1.34 0 0.68 0 0 Z " fill="#4A4A4A" transform="translate(56,52)"/>
<path d="M0 0 C0.66 0.33 1.32 0.66 2 1 C0.02 3.97 0.02 3.97 -2 7 C-3.32 6.67 -4.64 6.34 -6 6 C-4.02 4.02 -2.04 2.04 0 0 Z " fill="#B4B4B4" transform="translate(77,16)"/>
</svg>
